<?xml version="1.0" encoding="UTF-8" standalone="no"?>
<svg
   xmlns:dc="http://purl.org/dc/elements/1.1/"
   xmlns:cc="http://creativecommons.org/ns#"
   xmlns:rdf="http://www.w3.org/1999/02/22-rdf-syntax-ns#"
   xmlns:svg="http://www.w3.org/2000/svg"
   xmlns="http://www.w3.org/2000/svg"
   version="1.1"
   id="svg2"
   xml:space="preserve"
   width="1122.5197"
   height="793.70074"
   viewBox="0 0 1122.5197 793.70074"><metadata
     id="metadata8"><rdf:RDF><cc:Work
         rdf:about=""><dc:format>image/svg+xml</dc:format><dc:type
           rdf:resource="http://purl.org/dc/dcmitype/StillImage" /><dc:title></dc:title></cc:Work></rdf:RDF></metadata><defs
     id="defs6" /><g
     id="g10"
     transform="matrix(1.3333333,0,0,-1.3333333,0,793.70077)"><g
       id="g12"><path
         d="M 102.555,96.514 H 90.438 V 75.369 H 68.133 V 96.514 H 56.02 V 41.416 H 68.133 V 65.182 H 90.438 V 41.416 h 12.117 z"
         style="fill:#000000;fill-opacity:1;fill-rule:nonzero;stroke:none"
         id="path14" /><path
         d="m 143.996,50.287 v 20.762 c 0,2.414 -0.543,4.359 -1.621,5.824 -1.082,1.473 -2.469,2.61 -4.168,3.438 -1.699,0.82 -3.574,1.371 -5.633,1.656 -2.058,0.281 -4.09,0.426 -6.094,0.426 -2.218,0 -4.414,-0.215 -6.601,-0.656 -2.188,-0.438 -4.156,-1.168 -5.902,-2.2 -1.75,-1.031 -3.192,-2.39 -4.325,-4.09 -1.132,-1.699 -1.773,-3.835 -1.929,-6.406 h 10.957 c 0.207,2.16 0.925,3.707 2.164,4.629 1.234,0.93 2.929,1.391 5.094,1.391 0.976,0 1.89,-0.063 2.738,-0.192 0.851,-0.129 1.594,-0.386 2.238,-0.773 0.645,-0.383 1.16,-0.93 1.543,-1.621 0.387,-0.696 0.578,-1.633 0.578,-2.813 0.051,-1.136 -0.285,-1.996 -1.004,-2.59 -0.719,-0.589 -1.695,-1.039 -2.929,-1.347 -1.239,-0.313 -2.657,-0.543 -4.243,-0.696 -1.601,-0.156 -3.218,-0.367 -4.863,-0.617 -1.648,-0.261 -3.285,-0.605 -4.906,-1.043 -1.621,-0.441 -3.059,-1.093 -4.32,-1.972 -1.258,-0.871 -2.29,-2.039 -3.086,-3.512 -0.797,-1.465 -1.2,-3.328 -1.2,-5.59 0,-2.062 0.348,-3.832 1.047,-5.328 0.692,-1.488 1.66,-2.727 2.891,-3.703 1.238,-0.977 2.676,-1.695 4.324,-2.156 1.645,-0.461 3.418,-0.692 5.324,-0.692 2.469,0 4.887,0.356 7.254,1.074 2.367,0.723 4.422,1.977 6.176,3.786 0.051,-0.672 0.141,-1.329 0.27,-1.969 0.128,-0.649 0.292,-1.274 0.503,-1.891 h 11.11 c -0.512,0.821 -0.875,2.055 -1.082,3.703 -0.199,1.645 -0.305,3.368 -0.305,5.168 z m -10.957,6.559 c 0,-0.613 -0.066,-1.438 -0.195,-2.465 -0.129,-1.031 -0.477,-2.043 -1.043,-3.051 -0.567,-1 -1.442,-1.863 -2.621,-2.582 -1.184,-0.722 -2.856,-1.082 -5.016,-1.082 -0.875,0 -1.726,0.078 -2.547,0.231 -0.824,0.156 -1.547,0.422 -2.164,0.812 -0.613,0.391 -1.105,0.914 -1.465,1.578 -0.359,0.672 -0.539,1.496 -0.539,2.473 0,1.031 0.18,1.875 0.539,2.551 0.36,0.664 0.836,1.218 1.43,1.652 0.59,0.441 1.285,0.789 2.082,1.043 0.797,0.262 1.605,0.461 2.434,0.621 0.875,0.156 1.746,0.281 2.621,0.387 0.871,0.101 1.711,0.23 2.507,0.383 0.797,0.156 1.543,0.347 2.239,0.578 0.695,0.23 1.273,0.554 1.738,0.965 z"
         style="fill:#000000;fill-opacity:1;fill-rule:nonzero;stroke:none"
         id="path16" /><path
         d="m 173.59,50.791 c -1.414,-1.465 -3.434,-2.199 -6.059,-2.199 -1.695,0 -3.136,0.391 -4.32,1.16 -1.184,0.77 -2.121,1.758 -2.816,2.969 -0.696,1.211 -1.2,2.558 -1.504,4.055 -0.313,1.492 -0.465,2.957 -0.465,4.394 0,1.496 0.152,3 0.465,4.516 0.304,1.515 0.832,2.91 1.578,4.168 0.746,1.261 1.711,2.289 2.894,3.086 1.184,0.8 2.649,1.199 4.399,1.199 4.683,0 7.383,-2.293 8.101,-6.871 h 10.727 c -0.152,2.578 -0.77,4.801 -1.852,6.679 -1.082,1.879 -2.48,3.446 -4.207,4.707 -1.722,1.262 -3.676,2.2 -5.863,2.821 -2.188,0.613 -4.465,0.926 -6.828,0.926 -3.242,0 -6.125,-0.547 -8.645,-1.622 -2.523,-1.085 -4.66,-2.589 -6.406,-4.515 -1.746,-1.934 -3.07,-4.219 -3.973,-6.871 -0.898,-2.653 -1.351,-5.516 -1.351,-8.61 0,-2.976 0.488,-5.718 1.465,-8.211 0.976,-2.5 2.343,-4.648 4.09,-6.449 1.75,-1.797 3.875,-3.199 6.367,-4.203 2.496,-1.004 5.238,-1.5 8.218,-1.5 5.301,0 9.649,1.387 13.043,4.164 3.395,2.781 5.454,6.817 6.172,12.117 h -10.57 c -0.355,-2.476 -1.246,-4.445 -2.66,-5.91 z"
         style="fill:#000000;fill-opacity:1;fill-rule:nonzero;stroke:none"
         id="path18" /><path
         d="M 229.656,41.416 212.91,66.654 227.957,81.311 H 214.996 L 201.18,66.959 V 96.514 H 190.223 V 41.416 h 10.957 v 13.735 l 4.246,4.089 10.957,-17.824 z"
         style="fill:#000000;fill-opacity:1;fill-rule:nonzero;stroke:none"
         id="path20" /><path
         d="m 266.777,67.576 c -0.722,2.828 -1.89,5.348 -3.511,7.563 -1.621,2.207 -3.696,3.976 -6.215,5.289 -2.52,1.309 -5.477,1.965 -8.871,1.965 -3.035,0 -5.805,-0.543 -8.301,-1.621 -2.496,-1.082 -4.641,-2.563 -6.441,-4.438 -1.801,-1.883 -3.192,-4.105 -4.168,-6.676 -0.977,-2.574 -1.465,-5.351 -1.465,-8.332 0,-3.093 0.472,-5.918 1.429,-8.492 0.95,-2.57 2.297,-4.781 4.047,-6.633 1.75,-1.855 3.887,-3.285 6.41,-4.289 2.516,-1.004 5.348,-1.5 8.489,-1.5 4.527,0 8.382,1.024 11.574,3.082 3.191,2.055 5.558,5.485 7.101,10.266 h -9.648 c -0.359,-1.234 -1.34,-2.402 -2.934,-3.508 -1.593,-1.113 -3.496,-1.664 -5.711,-1.664 -3.082,0 -5.449,0.801 -7.097,2.391 -1.645,1.597 -2.547,4.168 -2.699,7.715 h 28.785 c 0.203,3.097 -0.055,6.054 -0.774,8.882 z m -28.011,-1.933 c 0.046,0.777 0.214,1.652 0.5,2.629 0.281,0.972 0.773,1.898 1.468,2.777 0.692,0.875 1.618,1.602 2.778,2.199 1.16,0.59 2.609,0.887 4.359,0.887 2.676,0 4.668,-0.723 5.981,-2.156 1.312,-1.442 2.222,-3.555 2.738,-6.336 z"
         style="fill:#000000;fill-opacity:1;fill-rule:nonzero;stroke:none"
         id="path22" /><path
         d="m 327.59,62.057 c -1.188,0.851 -2.539,1.531 -4.051,2.047 -1.523,0.508 -3.078,0.949 -4.672,1.308 -1.543,0.36 -3.062,0.692 -4.551,1.008 -1.492,0.305 -2.82,0.652 -3.976,1.043 -1.156,0.379 -2.094,0.883 -2.817,1.504 -0.718,0.613 -1.078,1.414 -1.078,2.391 0,0.82 0.207,1.476 0.617,1.968 0.411,0.485 0.911,0.86 1.504,1.118 0.59,0.257 1.246,0.425 1.969,0.503 0.719,0.075 1.387,0.114 2.004,0.114 1.957,0 3.652,-0.375 5.094,-1.117 1.441,-0.747 2.238,-2.176 2.394,-4.282 h 10.418 c -0.207,2.465 -0.84,4.512 -1.89,6.137 -1.055,1.621 -2.383,2.914 -3.977,3.895 -1.594,0.976 -3.406,1.671 -5.441,2.085 -2.032,0.411 -4.129,0.618 -6.289,0.618 -2.16,0 -4.27,-0.196 -6.328,-0.578 -2.059,-0.387 -3.911,-1.059 -5.559,-2.008 -1.645,-0.957 -2.969,-2.254 -3.973,-3.899 -0.465,-0.761 -0.797,-1.64 -1.043,-2.605 v 8.703 c -0.871,0.254 -1.672,0.387 -2.39,0.387 -1.387,0 -2.731,-0.207 -4.016,-0.618 -1.281,-0.414 -2.496,-0.996 -3.625,-1.738 -1.133,-0.75 -2.137,-1.652 -3.012,-2.703 -0.875,-1.055 -1.57,-2.199 -2.082,-3.434 h -0.152 v 7.407 H 270.246 V 41.412 h 10.957 v 17.981 c 0,1.801 0.18,3.472 0.543,5.019 0.356,1.543 0.961,2.895 1.813,4.051 0.847,1.156 1.968,2.074 3.359,2.738 1.387,0.672 3.086,1.004 5.09,1.004 0.668,0 1.363,-0.039 2.082,-0.113 0.64,-0.07 1.16,-0.148 1.637,-0.238 -0.106,-0.735 -0.247,-1.438 -0.247,-2.274 0,-1.746 0.36,-3.23 1.082,-4.433 0.719,-1.211 1.672,-2.215 2.856,-3.012 1.184,-0.797 2.535,-1.441 4.051,-1.93 1.515,-0.488 3.074,-0.91 4.668,-1.273 3.914,-0.824 6.961,-1.645 9.148,-2.469 2.184,-0.82 3.277,-2.062 3.277,-3.703 0,-0.981 -0.23,-1.789 -0.695,-2.434 -0.461,-0.64 -1.043,-1.156 -1.734,-1.543 -0.695,-0.382 -1.465,-0.664 -2.317,-0.847 -0.847,-0.184 -1.656,-0.27 -2.429,-0.27 -1.082,0 -2.121,0.125 -3.125,0.387 -1.004,0.258 -1.891,0.652 -2.664,1.191 -0.77,0.547 -1.403,1.239 -1.891,2.086 -0.492,0.852 -0.73,1.864 -0.73,3.047 h -10.422 c 0.105,-2.672 0.707,-4.902 1.816,-6.672 1.106,-1.777 2.52,-3.207 4.242,-4.285 1.723,-1.082 3.692,-1.851 5.903,-2.312 2.211,-0.465 4.476,-0.696 6.793,-0.696 2.265,0 4.488,0.219 6.671,0.653 2.192,0.433 4.133,1.199 5.832,2.277 1.696,1.082 3.075,2.508 4.129,4.281 1.051,1.778 1.582,3.977 1.582,6.598 0,1.851 -0.363,3.41 -1.082,4.672 -0.722,1.265 -1.671,2.316 -2.851,3.164 z"
         style="fill:#000000;fill-opacity:1;fill-rule:nonzero;stroke:none"
         id="path24" /><path
         d="m 370.34,75.912 c -1.492,1.953 -3.371,3.52 -5.633,4.707 -2.266,1.184 -4.965,1.774 -8.105,1.774 -2.469,0 -4.731,-0.492 -6.79,-1.469 -2.058,-0.977 -3.753,-2.547 -5.093,-4.703 h -0.153 v 5.09 H 334.145 V 27.444 h 10.96 v 18.91 h 0.157 c 1.336,-1.957 3.047,-3.434 5.133,-4.438 2.082,-1.004 4.359,-1.5 6.828,-1.5 2.929,0 5.488,0.567 7.679,1.692 2.184,1.129 4.012,2.652 5.477,4.558 1.469,1.895 2.559,4.086 3.277,6.555 0.719,2.473 1.086,5.043 1.086,7.719 0,2.828 -0.363,5.543 -1.086,8.14 -0.718,2.594 -1.824,4.875 -3.316,6.832 z m -7.024,-19.375 c -0.304,-1.539 -0.836,-2.894 -1.578,-4.05 -0.746,-1.157 -1.726,-2.094 -2.933,-2.813 -1.211,-0.723 -2.715,-1.082 -4.516,-1.082 -1.75,0 -3.242,0.359 -4.477,1.082 -1.234,0.719 -2.226,1.656 -2.972,2.813 -0.746,1.156 -1.285,2.511 -1.621,4.05 -0.332,1.547 -0.5,3.117 -0.5,4.707 0,1.649 0.152,3.243 0.465,4.789 0.304,1.543 0.836,2.903 1.582,4.09 0.742,1.18 1.722,2.145 2.933,2.895 1.203,0.738 2.707,1.117 4.512,1.117 1.746,0 3.227,-0.379 4.437,-1.117 1.211,-0.75 2.2,-1.723 2.973,-2.934 0.77,-1.211 1.324,-2.586 1.656,-4.129 0.332,-1.543 0.504,-3.113 0.504,-4.711 0,-1.59 -0.156,-3.16 -0.465,-4.707 z"
         style="fill:#000000;fill-opacity:1;fill-rule:nonzero;stroke:none"
         id="path26" /><path
         d="m 413.324,50.287 v 20.762 c 0,2.414 -0.543,4.359 -1.621,5.824 -1.082,1.473 -2.469,2.61 -4.168,3.438 -1.699,0.82 -3.574,1.371 -5.633,1.656 -2.058,0.281 -4.086,0.426 -6.093,0.426 -2.215,0 -4.414,-0.215 -6.602,-0.656 -2.187,-0.438 -4.152,-1.168 -5.902,-2.2 -1.75,-1.031 -3.192,-2.39 -4.321,-4.09 -1.132,-1.699 -1.777,-3.835 -1.929,-6.406 h 10.957 c 0.203,2.16 0.926,3.707 2.16,4.629 1.238,0.93 2.933,1.391 5.094,1.391 0.98,0 1.894,-0.063 2.742,-0.192 0.847,-0.129 1.594,-0.386 2.238,-0.773 0.645,-0.383 1.16,-0.93 1.543,-1.621 0.387,-0.696 0.578,-1.633 0.578,-2.813 0.051,-1.136 -0.281,-1.996 -1.004,-2.59 -0.718,-0.589 -1.695,-1.039 -2.933,-1.347 -1.235,-0.313 -2.649,-0.543 -4.242,-0.696 -1.598,-0.156 -3.219,-0.367 -4.86,-0.617 -1.648,-0.261 -3.285,-0.605 -4.902,-1.043 -1.621,-0.441 -3.063,-1.093 -4.324,-1.972 -1.262,-0.871 -2.286,-2.039 -3.086,-3.512 -0.797,-1.465 -1.196,-3.328 -1.196,-5.59 0,-2.062 0.344,-3.832 1.039,-5.328 0.696,-1.488 1.664,-2.727 2.895,-3.703 1.234,-0.977 2.676,-1.695 4.32,-2.156 1.649,-0.461 3.422,-0.692 5.324,-0.692 2.473,0 4.891,0.356 7.258,1.074 2.367,0.723 4.422,1.977 6.176,3.786 0.051,-0.672 0.141,-1.329 0.266,-1.969 0.132,-0.649 0.297,-1.274 0.507,-1.891 h 11.11 c -0.512,0.821 -0.875,2.055 -1.082,3.703 -0.207,1.645 -0.309,3.368 -0.309,5.168 z m -10.957,6.559 c 0,-0.613 -0.066,-1.438 -0.195,-2.465 -0.129,-1.031 -0.473,-2.043 -1.043,-3.051 -0.563,-1 -1.438,-1.863 -2.621,-2.582 -1.184,-0.722 -2.86,-1.082 -5.016,-1.082 -0.879,0 -1.726,0.078 -2.551,0.231 -0.824,0.156 -1.543,0.422 -2.16,0.812 -0.617,0.391 -1.105,0.914 -1.469,1.578 -0.355,0.672 -0.539,1.496 -0.539,2.473 0,1.031 0.18,1.875 0.539,2.551 0.364,0.664 0.84,1.218 1.43,1.652 0.59,0.441 1.285,0.789 2.086,1.043 0.797,0.262 1.606,0.461 2.43,0.621 0.875,0.156 1.75,0.281 2.621,0.387 0.875,0.101 1.711,0.23 2.508,0.383 0.797,0.156 1.547,0.347 2.238,0.578 0.695,0.23 1.277,0.554 1.738,0.965 v -4.094 z"
         style="fill:#000000;fill-opacity:1;fill-rule:nonzero;stroke:none"
         id="path28" /><path
         d="m 442.918,50.791 c -1.414,-1.465 -3.434,-2.199 -6.059,-2.199 -1.695,0 -3.136,0.391 -4.32,1.16 -1.184,0.77 -2.121,1.758 -2.816,2.969 -0.692,1.211 -1.196,2.558 -1.504,4.055 -0.309,1.492 -0.465,2.957 -0.465,4.394 0,1.496 0.156,3 0.465,4.516 0.308,1.515 0.836,2.91 1.582,4.168 0.746,1.261 1.711,2.289 2.894,3.086 1.184,0.8 2.649,1.199 4.399,1.199 4.683,0 7.383,-2.293 8.101,-6.871 h 10.731 c -0.153,2.578 -0.778,4.801 -1.852,6.679 -1.082,1.879 -2.484,3.446 -4.207,4.707 -1.726,1.262 -3.676,2.2 -5.863,2.821 -2.192,0.613 -4.465,0.926 -6.828,0.926 -3.242,0 -6.125,-0.547 -8.649,-1.622 -2.519,-1.085 -4.656,-2.589 -6.402,-4.515 -1.75,-1.934 -3.074,-4.219 -3.973,-6.871 -0.902,-2.653 -1.351,-5.516 -1.351,-8.61 0,-2.976 0.488,-5.718 1.465,-8.211 0.976,-2.5 2.343,-4.648 4.089,-6.449 1.75,-1.797 3.875,-3.199 6.368,-4.203 2.496,-1.004 5.238,-1.5 8.218,-1.5 5.305,0 9.645,1.387 13.043,4.164 3.399,2.781 5.454,6.817 6.172,12.117 h -10.574 c -0.359,-2.476 -1.246,-4.445 -2.664,-5.91 z"
         style="fill:#000000;fill-opacity:1;fill-rule:nonzero;stroke:none"
         id="path30" /><path
         d="m 495.586,67.576 c -0.715,2.828 -1.887,5.348 -3.508,7.563 -1.621,2.207 -3.691,3.976 -6.219,5.289 -2.515,1.309 -5.476,1.965 -8.867,1.965 -3.039,0 -5.804,-0.543 -8.301,-1.621 -2.496,-1.082 -4.644,-2.563 -6.441,-4.438 -1.801,-1.883 -3.191,-4.105 -4.168,-6.676 -0.98,-2.574 -1.469,-5.351 -1.469,-8.332 0,-3.093 0.477,-5.918 1.426,-8.492 0.949,-2.57 2.305,-4.781 4.051,-6.633 1.75,-1.855 3.883,-3.285 6.41,-4.289 2.516,-1.004 5.348,-1.5 8.492,-1.5 4.528,0 8.379,1.024 11.574,3.082 3.184,2.055 5.555,5.485 7.098,10.266 h -9.644 c -0.364,-1.234 -1.34,-2.402 -2.938,-3.508 -1.594,-1.113 -3.496,-1.664 -5.711,-1.664 -3.086,0 -5.449,0.801 -7.094,2.391 -1.648,1.597 -2.547,4.168 -2.703,7.715 h 28.785 c 0.211,3.097 -0.05,6.054 -0.773,8.882 z m -28.008,-1.933 c 0.051,0.777 0.211,1.652 0.504,2.629 0.273,0.972 0.77,1.898 1.465,2.777 0.691,0.875 1.621,1.602 2.777,2.199 1.156,0.59 2.61,0.887 4.36,0.887 2.675,0 4.664,-0.723 5.984,-2.156 1.309,-1.442 2.227,-3.555 2.734,-6.336 z"
         style="fill:#000000;fill-opacity:1;fill-rule:nonzero;stroke:none"
         id="path32" /><path
         d="M 532.711,96.514 511.262,41.412 h 7.488 l 6.172,16.59 h 23.301 l 6.023,-16.59 h 8.102 l -21.532,55.102 z m -5.477,-32.332 9.336,25.699 h 0.16 l 9.18,-25.699 z"
         style="fill:#000000;fill-opacity:1;fill-rule:nonzero;stroke:none"
         id="path34" /><path
         d="m 591.906,75.99 h -0.152 c -0.719,1.18 -1.609,2.168 -2.664,2.969 -1.051,0.797 -2.176,1.442 -3.356,1.934 -1.179,0.484 -2.371,0.832 -3.554,1.039 -1.18,0.207 -2.289,0.308 -3.313,0.308 -3.035,0 -5.699,-0.558 -7.984,-1.664 -2.293,-1.101 -4.199,-2.597 -5.715,-4.472 -1.52,-1.883 -2.652,-4.082 -3.398,-6.598 -0.743,-2.523 -1.118,-5.199 -1.118,-8.031 0,-2.824 0.391,-5.504 1.16,-8.02 0.77,-2.523 1.915,-4.738 3.43,-6.64 1.516,-1.903 3.43,-3.422 5.715,-4.551 2.285,-1.133 4.977,-1.699 8.063,-1.699 2.781,0 5.324,0.492 7.64,1.468 2.313,0.973 4.016,2.571 5.094,4.782 h 0.152 v -5.403 h 6.563 v 55.102 h -6.563 z m -0.418,-20.144 c -0.441,-1.801 -1.148,-3.41 -2.129,-4.824 -0.972,-1.414 -2.238,-2.555 -3.777,-3.43 -1.551,-0.883 -3.426,-1.316 -5.637,-1.316 -2.105,0 -3.945,0.414 -5.515,1.234 -1.567,0.82 -2.852,1.934 -3.864,3.32 -0.996,1.391 -1.746,2.973 -2.23,4.75 -0.496,1.77 -0.738,3.582 -0.738,5.434 0,1.957 0.203,3.863 0.625,5.711 0.398,1.851 1.07,3.5 2,4.937 0.925,1.446 2.164,2.602 3.703,3.477 1.543,0.871 3.422,1.312 5.633,1.312 2.261,0 4.195,-0.422 5.793,-1.277 1.593,-0.848 2.894,-1.969 3.89,-3.355 1.008,-1.387 1.735,-2.997 2.199,-4.821 0.461,-1.828 0.692,-3.722 0.692,-5.672 0,-1.851 -0.219,-3.679 -0.645,-5.48 z"
         style="fill:#000000;fill-opacity:1;fill-rule:nonzero;stroke:none"
         id="path36" /><path
         d="m 638.789,67.033 c -0.543,2.676 -1.516,5.145 -2.934,7.411 -1.417,2.261 -3.293,4.132 -5.632,5.597 -2.34,1.461 -5.289,2.199 -8.832,2.199 -2.735,0 -5.243,-0.515 -7.528,-1.546 -2.293,-1.032 -4.269,-2.465 -5.949,-4.317 -1.668,-1.855 -2.961,-4.043 -3.891,-6.566 -0.925,-2.516 -1.386,-5.293 -1.386,-8.336 0.097,-3.031 0.551,-5.832 1.347,-8.406 0.793,-2.571 1.993,-4.782 3.582,-6.637 1.598,-1.852 3.567,-3.289 5.903,-4.324 2.347,-1.032 5.109,-1.543 8.301,-1.543 4.531,0 8.285,1.132 11.265,3.398 2.988,2.266 4.918,5.633 5.789,10.113 h -6.48 c -0.567,-2.629 -1.739,-4.586 -3.508,-5.867 -1.777,-1.289 -4.055,-1.93 -6.832,-1.93 -2.164,0 -4.039,0.36 -5.637,1.083 -1.59,0.718 -2.906,1.683 -3.937,2.894 -1.024,1.203 -1.77,2.594 -2.235,4.168 -0.461,1.566 -0.672,3.223 -0.613,4.973 h 29.863 c 0.102,2.418 -0.121,4.961 -0.656,7.636 z m -29.207,-1.851 c 0.098,1.547 0.434,2.996 0.996,4.363 0.567,1.359 1.344,2.563 2.313,3.59 0.984,1.023 2.156,1.836 3.519,2.434 1.356,0.589 2.895,0.886 4.586,0.886 1.652,0 3.152,-0.297 4.516,-0.886 1.363,-0.598 2.547,-1.391 3.554,-2.399 1,-1 1.801,-2.199 2.391,-3.59 0.59,-1.386 0.934,-2.851 1.043,-4.398 z"
         style="fill:#000000;fill-opacity:1;fill-rule:nonzero;stroke:none"
         id="path38" /><path
         d="m 642.84,96.514 h 6.551 V 41.412 h -6.551 z"
         style="fill:#000000;fill-opacity:1;fill-rule:nonzero;stroke:none"
         id="path40" /><path
         d="m 687.328,47.362 c -0.183,0.714 -0.269,1.851 -0.269,3.39 v 20.531 c 0,2.317 -0.438,4.192 -1.313,5.633 -0.875,1.442 -2.035,2.559 -3.473,3.36 -1.437,0.796 -3.043,1.324 -4.824,1.578 -1.773,0.261 -3.558,0.39 -5.363,0.39 -2.215,0 -4.32,-0.23 -6.328,-0.695 -2.012,-0.465 -3.781,-1.223 -5.324,-2.273 -1.547,-1.063 -2.774,-2.434 -3.7,-4.133 -0.925,-1.699 -1.445,-3.781 -1.55,-6.254 h 6.562 c 0.152,2.933 1.16,4.926 3.012,5.984 1.851,1.055 4.168,1.582 6.945,1.582 1.031,0 2.074,-0.074 3.125,-0.23 1.055,-0.156 2.004,-0.461 2.856,-0.926 0.851,-0.465 1.546,-1.137 2.082,-2.008 0.539,-0.875 0.812,-2.035 0.812,-3.476 0,-1.231 -0.363,-2.168 -1.082,-2.813 -0.719,-0.648 -1.695,-1.133 -2.926,-1.469 -1.242,-0.336 -2.664,-0.589 -4.289,-0.773 -1.621,-0.176 -3.332,-0.449 -5.136,-0.809 -1.692,-0.304 -3.356,-0.695 -4.977,-1.156 -1.621,-0.465 -3.059,-1.144 -4.32,-2.043 -1.266,-0.902 -2.27,-2.074 -3.047,-3.515 -0.774,-1.442 -1.156,-3.293 -1.156,-5.555 0,-2.004 0.347,-3.719 1.043,-5.129 0.695,-1.422 1.644,-2.578 2.859,-3.473 1.203,-0.906 2.601,-1.547 4.199,-1.937 1.598,-0.379 3.289,-0.574 5.098,-0.574 2.773,0 5.355,0.48 7.754,1.429 2.39,0.949 4.484,2.504 6.285,4.672 0,-2.168 0.504,-3.723 1.508,-4.672 1.004,-0.949 2.351,-1.429 4.05,-1.429 2.008,0 3.579,0.332 4.711,1.003 v 5.098 c -0.773,-0.266 -1.449,-0.391 -2.007,-0.391 -1.032,-0.003 -1.641,0.356 -1.817,1.083 z m -6.828,7.949 c 0,-0.93 -0.23,-1.922 -0.695,-2.973 -0.461,-1.062 -1.188,-2.039 -2.16,-2.934 -0.973,-0.902 -2.239,-1.652 -3.782,-2.242 -1.547,-0.59 -3.398,-0.886 -5.558,-0.886 -0.977,0 -1.938,0.105 -2.895,0.308 -0.957,0.211 -1.777,0.543 -2.472,1.008 -0.692,0.461 -1.262,1.062 -1.696,1.812 -0.433,0.747 -0.652,1.661 -0.652,2.739 0,1.648 0.367,2.941 1.113,3.898 0.75,0.949 1.711,1.684 2.895,2.196 1.187,0.515 2.519,0.89 4.011,1.121 1.493,0.234 2.977,0.433 4.442,0.613 1.465,0.187 2.863,0.41 4.207,0.695 1.332,0.281 2.418,0.735 3.238,1.356 v -6.711 z"
         style="fill:#000000;fill-opacity:1;fill-rule:nonzero;stroke:none"
         id="path42" /><path
         d="m 693.848,81.311 h 6.559 V 41.413 h -6.559 z"
         style="fill:#000000;fill-opacity:1;fill-rule:nonzero;stroke:none"
         id="path44" /><path
         d="m 693.848,96.514 h 6.559 v -8.023 h -6.559 z"
         style="fill:#000000;fill-opacity:1;fill-rule:nonzero;stroke:none"
         id="path46" /><path
         d="m 735.906,75.99 h -0.156 c -0.723,1.18 -1.609,2.168 -2.66,2.969 -1.063,0.797 -2.172,1.442 -3.36,1.934 -1.187,0.484 -2.367,0.832 -3.546,1.039 -1.188,0.207 -2.297,0.308 -3.325,0.308 -3.031,0 -5.695,-0.558 -7.988,-1.664 -2.285,-1.101 -4.187,-2.597 -5.707,-4.472 -1.516,-1.883 -2.648,-4.082 -3.391,-6.598 -0.753,-2.523 -1.125,-5.199 -1.125,-8.031 0,-2.824 0.383,-5.504 1.161,-8.02 0.773,-2.523 1.918,-4.738 3.437,-6.64 1.516,-1.903 3.414,-3.422 5.707,-4.551 2.289,-1.133 4.981,-1.699 8.063,-1.699 2.781,0 5.324,0.492 7.64,1.468 2.317,0.973 4.012,2.571 5.094,4.782 h 0.156 v -5.403 h 6.559 v 55.102 h -6.559 z M 735.48,55.846 c -0.441,-1.801 -1.148,-3.41 -2.121,-4.824 -0.984,-1.414 -2.242,-2.555 -3.785,-3.43 -1.539,-0.883 -3.422,-1.316 -5.633,-1.316 -2.113,0 -3.945,0.414 -5.515,1.234 -1.574,0.82 -2.86,1.934 -3.86,3.32 -1.004,1.391 -1.75,2.973 -2.242,4.75 -0.484,1.77 -0.73,3.582 -0.73,5.434 0,1.957 0.207,3.863 0.617,5.711 0.418,1.851 1.078,3.5 2.008,4.937 0.926,1.446 2.156,2.602 3.703,3.477 1.547,0.871 3.422,1.312 5.633,1.312 2.269,0 4.199,-0.422 5.789,-1.277 1.597,-0.848 2.894,-1.969 3.898,-3.355 1.004,-1.387 1.735,-2.997 2.199,-4.821 0.465,-1.828 0.696,-3.722 0.696,-5.672 0,-1.851 -0.219,-3.679 -0.657,-5.48 z"
         style="fill:#000000;fill-opacity:1;fill-rule:nonzero;stroke:none"
         id="path48" /><path
         d="m 772.832,48.205 c -1.777,-1.285 -4.051,-1.929 -6.828,-1.929 -2.164,0 -4.039,0.359 -5.637,1.086 -1.597,0.714 -2.906,1.683 -3.937,2.894 -1.028,1.203 -1.77,2.59 -2.235,4.168 -0.461,1.566 -0.672,3.223 -0.617,4.969 h 29.86 c 0.105,2.422 -0.114,4.965 -0.653,7.64 -0.539,2.676 -1.519,5.145 -2.933,7.411 -1.414,2.261 -3.29,4.132 -5.625,5.597 -2.344,1.461 -5.289,2.199 -8.84,2.199 -2.727,0 -5.239,-0.515 -7.524,-1.546 -2.293,-1.032 -4.273,-2.465 -5.945,-4.317 -1.668,-1.855 -2.969,-4.043 -3.895,-6.566 -0.929,-2.516 -1.39,-5.293 -1.39,-8.336 0.097,-3.031 0.551,-5.832 1.347,-8.406 0.801,-2.571 1.997,-4.782 3.59,-6.637 1.598,-1.852 3.567,-3.289 5.907,-4.324 2.339,-1.032 5.105,-1.543 8.3,-1.543 4.524,0 8.274,1.132 11.262,3.398 2.988,2.266 4.906,5.633 5.789,10.113 h -6.484 c -0.567,-2.632 -1.739,-4.586 -3.512,-5.871 z m -18.254,21.34 c 0.57,1.359 1.336,2.563 2.317,3.59 0.98,1.023 2.148,1.836 3.515,2.434 1.36,0.589 2.895,0.886 4.59,0.886 1.645,0 3.148,-0.297 4.516,-0.886 1.367,-0.598 2.546,-1.391 3.55,-2.399 0.996,-1 1.797,-2.199 2.387,-3.59 0.59,-1.386 0.938,-2.851 1.043,-4.398 h -22.914 c 0.094,1.547 0.43,2.996 0.996,4.363 z"
         style="fill:#000000;fill-opacity:1;fill-rule:nonzero;stroke:none"
         id="path50" /><path
         d="m 361.645,163.932 c -2.954,0 -5.36,-2.403 -5.36,-5.356 0,-2.957 2.406,-5.359 5.36,-5.359 2.953,0 5.359,2.402 5.359,5.359 0,2.953 -2.406,5.356 -5.359,5.356 z"
         style="fill:#000000;fill-opacity:1;fill-rule:nonzero;stroke:none"
         id="path52" /><path
         d="m 298.84,163.932 c -2.953,0 -5.36,-2.403 -5.36,-5.356 0,-2.957 2.407,-5.359 5.36,-5.359 2.957,0 5.355,2.402 5.355,5.359 0.004,2.953 -2.398,5.356 -5.355,5.356 z"
         style="fill:#000000;fill-opacity:1;fill-rule:nonzero;stroke:none"
         id="path54" /><path
         d="m 668.191,163.932 c -2.957,0 -5.359,-2.403 -5.359,-5.356 0,-2.957 2.402,-5.359 5.359,-5.359 2.961,0 5.364,2.402 5.364,5.359 0,2.953 -2.403,5.356 -5.364,5.356 z"
         style="fill:#000000;fill-opacity:1;fill-rule:nonzero;stroke:none"
         id="path56" /><path
         d="m 413.059,266.229 c -0.321,2.226 -0.481,4.617 -0.481,7.172 -0.64,4.773 -1.594,9.562 -2.859,14.336 -1.281,4.781 -2.715,9.394 -4.305,13.863 -1.281,4.457 -2.867,8.914 -4.781,13.375 -1.91,4.472 -3.985,8.765 -6.211,12.914 -0.641,0.957 -1.125,1.906 -1.434,2.863 -0.32,0.957 -0.957,1.914 -1.914,2.867 -3.512,7.328 -7.726,14.176 -12.664,20.555 -4.941,6.371 -10.445,12.582 -16.488,18.645 -3.188,2.867 -6.539,5.804 -10.043,8.839 -3.508,3.024 -7.008,5.813 -10.516,8.364 -2.867,2.55 -5.734,4.691 -8.597,6.453 -2.871,1.75 -5.907,3.582 -9.09,5.5 -0.953,0.633 -1.906,1.195 -2.86,1.672 -0.961,0.476 -2.234,1.031 -3.832,1.668 -3.824,2.23 -7.812,4.218 -11.949,5.972 -4.14,1.754 -8.445,3.274 -12.902,4.543 -2.867,0.313 -5.094,0.965 -6.692,1.918 -2.554,0.629 -4.945,1.266 -7.164,1.91 -2.238,0.637 -4.625,1.27 -7.175,1.911 V 567.83 H 56.016 V 137.654 h 358.476 v 114 c 0,2.391 -0.168,4.856 -0.476,7.407 -0.325,2.543 -0.641,4.933 -0.957,7.168 z m -162.661,291.3 c 5.848,0 10.586,-4.738 10.586,-10.585 0,-5.848 -4.738,-10.586 -10.586,-10.586 -5.843,0 -10.586,4.742 -10.586,10.586 0,5.847 4.743,10.585 10.586,10.585 z M 76.098,148.237 c -5.844,0 -10.586,4.742 -10.586,10.585 0,5.848 4.742,10.59 10.586,10.59 5.843,0 10.586,-4.742 10.586,-10.59 0,-5.843 -4.739,-10.585 -10.586,-10.585 z m 0,388.121 c -5.844,0 -10.586,4.742 -10.586,10.586 0,5.847 4.742,10.585 10.586,10.585 5.843,0 10.586,-4.738 10.586,-10.585 0,-5.844 -4.739,-10.586 -10.586,-10.586 z m 44.664,-377.782 c 0,-5.703 -4.637,-10.339 -10.332,-10.339 -5.703,0 -10.34,4.636 -10.34,10.339 0,5.059 3.66,9.262 8.469,10.141 v 367.828 c -4.809,0.883 -8.469,5.086 -8.469,10.149 0,5.699 4.637,10.335 10.34,10.335 5.695,0 10.332,-4.636 10.332,-10.335 0,-5.063 -3.66,-9.266 -8.469,-10.149 V 168.717 c 4.809,-0.879 8.469,-5.082 8.469,-10.141 z m 52.468,-10.339 c -5.695,0 -10.335,4.636 -10.335,10.339 0,5.008 3.582,9.188 8.316,10.133 v 94.297 l -35.836,131.117 v 142.422 c -4.809,0.883 -8.469,5.086 -8.469,10.149 0,5.699 4.637,10.335 10.336,10.335 5.703,0 10.336,-4.636 10.336,-10.335 0,-5.063 -3.66,-9.266 -8.473,-10.149 V 394.369 l 35.836,-131.113 v -94.523 c 4.883,-0.821 8.625,-5.047 8.625,-10.157 0.004,-5.703 -4.632,-10.339 -10.336,-10.339 z m 62.805,0 c -5.699,0 -10.336,4.636 -10.336,10.339 0,5.149 3.797,9.395 8.742,10.172 v 94.031 l -71.75,131.344 v 142.371 c -5.05,0.68 -8.968,4.969 -8.968,10.2 0,5.699 4.636,10.335 10.336,10.335 5.699,0 10.336,-4.636 10.336,-10.335 0,-4.879 -3.411,-8.961 -7.969,-10.04 V 394.6 l 71.75,-131.344 v -94.574 c 4.676,-0.992 8.195,-5.145 8.195,-10.106 0,-5.703 -4.637,-10.339 -10.336,-10.339 z m 62.805,0 c -5.699,0 -10.336,4.636 -10.336,10.339 0,5.297 4.023,9.625 9.168,10.215 v 93.793 L 189.008,393.447 v 143.098 c -4.813,0.883 -8.473,5.086 -8.473,10.149 0,5.699 4.637,10.335 10.34,10.335 5.695,0 10.332,-4.636 10.332,-10.335 0,-5.063 -3.66,-9.266 -8.469,-10.149 V 394.795 L 301.402,263.932 v -95.383 c 4.453,-1.152 7.77,-5.168 7.77,-9.973 0.004,-5.703 -4.633,-10.339 -10.332,-10.339 z m 62.805,0 c -5.7,0 -10.336,4.636 -10.336,10.339 0,5.442 4.242,9.864 9.589,10.258 v 93.594 L 215.824,393.291 v 143.254 c -4.808,0.883 -8.469,5.086 -8.469,10.149 0,5.699 4.637,10.335 10.333,10.335 5.703,0 10.339,-4.636 10.339,-10.335 0,-5.063 -3.66,-9.266 -8.468,-10.149 V 394.951 L 364.633,264.088 v -95.672 c 4.242,-1.293 7.351,-5.187 7.351,-9.84 0,-5.703 -4.64,-10.339 -10.339,-10.339 z m 33.417,0 c -5.843,0 -10.585,4.742 -10.585,10.585 0,5.848 4.742,10.59 10.585,10.59 5.844,0 10.586,-4.742 10.586,-10.59 -0.003,-5.843 -4.742,-10.585 -10.586,-10.585 z"
         style="fill:#000000;fill-opacity:1;fill-rule:nonzero;stroke:none"
         id="path58" /><path
         d="m 610.676,365.428 c 0,0.019 0.008,0.035 0.008,0.055 -0.082,2.882 -2.43,5.207 -5.332,5.207 -2.954,0 -5.356,-2.403 -5.356,-5.352 0,-2.953 2.402,-5.355 5.356,-5.355 2.949,0 5.347,2.398 5.351,5.339 0,0.036 -0.019,0.067 -0.027,0.106 z"
         style="fill:#000000;fill-opacity:1;fill-rule:nonzero;stroke:none"
         id="path60" /><path
         d="m 115.785,546.697 c 0,2.95 -2.402,5.352 -5.355,5.352 -2.957,0 -5.36,-2.402 -5.36,-5.352 0,-2.957 2.403,-5.363 5.36,-5.363 2.953,0 5.355,2.406 5.355,5.363 z"
         style="fill:#000000;fill-opacity:1;fill-rule:nonzero;stroke:none"
         id="path62" /><path
         d="m 223.047,546.697 c 0,2.95 -2.406,5.352 -5.359,5.352 -2.954,0 -5.356,-2.402 -5.356,-5.352 0,-2.957 2.402,-5.363 5.356,-5.363 2.953,0 5.359,2.406 5.359,5.363 z"
         style="fill:#000000;fill-opacity:1;fill-rule:nonzero;stroke:none"
         id="path64" /><path
         d="m 142.602,546.697 c 0,2.95 -2.407,5.352 -5.36,5.352 -2.953,0 -5.355,-2.402 -5.355,-5.352 0,-2.957 2.402,-5.363 5.355,-5.363 2.957,0 5.36,2.406 5.36,5.363 z"
         style="fill:#000000;fill-opacity:1;fill-rule:nonzero;stroke:none"
         id="path66" /><path
         d="m 173.23,163.932 c -2.953,0 -5.355,-2.403 -5.355,-5.356 0,-2.957 2.402,-5.359 5.355,-5.359 2.958,0 5.36,2.402 5.36,5.359 0,2.953 -2.402,5.356 -5.36,5.356 z"
         style="fill:#000000;fill-opacity:1;fill-rule:nonzero;stroke:none"
         id="path68" /><path
         d="m 105.07,158.576 c 0,-2.957 2.403,-5.359 5.36,-5.359 2.953,0 5.355,2.402 5.355,5.359 0,2.953 -2.402,5.356 -5.355,5.356 -2.957,0 -5.36,-2.403 -5.36,-5.356 z"
         style="fill:#000000;fill-opacity:1;fill-rule:nonzero;stroke:none"
         id="path70" /><path
         d="m 196.23,546.697 c 0,2.95 -2.402,5.352 -5.355,5.352 -2.953,0 -5.359,-2.402 -5.359,-5.352 0,-2.957 2.406,-5.363 5.359,-5.363 2.953,0 5.355,2.406 5.355,5.363 z"
         style="fill:#000000;fill-opacity:1;fill-rule:nonzero;stroke:none"
         id="path72" /><path
         d="m 236.035,163.932 c -2.953,0 -5.359,-2.403 -5.359,-5.356 0,-2.957 2.406,-5.359 5.359,-5.359 2.957,0 5.36,2.402 5.36,5.359 0,2.953 -2.403,5.356 -5.36,5.356 z"
         style="fill:#000000;fill-opacity:1;fill-rule:nonzero;stroke:none"
         id="path74" /><path
         d="m 169.418,546.697 c 0,2.95 -2.406,5.352 -5.359,5.352 -2.957,0 -5.356,-2.402 -5.356,-5.352 0,-2.957 2.402,-5.363 5.356,-5.363 2.953,0 5.359,2.406 5.359,5.363 z"
         style="fill:#000000;fill-opacity:1;fill-rule:nonzero;stroke:none"
         id="path76" /><path
         d="m 537.227,158.576 c 0,-2.957 2.402,-5.359 5.363,-5.359 2.957,0 5.355,2.402 5.355,5.359 0,2.953 -2.398,5.356 -5.355,5.356 -2.961,0 -5.363,-2.403 -5.363,-5.356 z"
         style="fill:#000000;fill-opacity:1;fill-rule:nonzero;stroke:none"
         id="path78" /><path
         d="m 771.777,458.135 c -9.402,21.828 -22.222,40.871 -38.476,57.121 -16.254,16.246 -35.297,29.074 -57.117,38.473 -21.836,9.394 -45.168,14.101 -70.02,14.101 -24.855,0 -48.203,-4.707 -70.023,-14.101 -21.832,-9.399 -40.801,-22.227 -56.879,-38.473 -16.102,-16.25 -28.84,-35.293 -38.242,-57.121 -9.403,-21.828 -14.098,-45.168 -14.098,-70.023 V 137.654 h 358.48 v 235.645 c 0.317,2.543 0.473,5.012 0.473,7.402 v 7.411 c 0.004,24.855 -4.703,48.195 -14.098,70.023 z M 447.984,148.237 c -5.839,0 -10.582,4.742 -10.582,10.585 0,5.848 4.743,10.59 10.582,10.59 5.844,0 10.59,-4.742 10.59,-10.59 0,-5.843 -4.746,-10.585 -10.59,-10.585 z m 220.207,0 c -5.699,0 -10.336,4.636 -10.336,10.339 0,4.95 3.508,9.094 8.168,10.094 v 94.145 l -50.855,99.437 c -1.328,-4.187 -5.199,-7.25 -9.816,-7.25 -4.614,0 -8.481,3.055 -9.809,7.235 l -50.402,-99.418 v -94.27 c 4.464,-1.141 7.781,-5.164 7.781,-9.973 0,-5.703 -4.633,-10.339 -10.332,-10.339 -5.703,0 -10.34,4.636 -10.34,10.339 0,5.289 4.016,9.621 9.156,10.211 l 0.196,95.321 50.656,99.918 c -17.278,3.136 -32.231,12.277 -42.84,25.117 h -67.809 c -1.379,0 -2.492,1.113 -2.492,2.492 0,1.371 1.113,2.488 2.492,2.488 h 64.039 c -4.164,6.035 -7.449,12.707 -9.648,19.86 h -34.379 c -1.379,0 -2.492,1.113 -2.492,2.488 0,1.375 1.113,2.492 2.492,2.492 h 33.067 c -1.223,5.293 -1.938,10.774 -1.938,16.422 0,1.152 0.098,2.293 0.152,3.441 h -8.953 c -1.379,0 -2.488,1.118 -2.488,2.493 0,1.371 1.109,2.488 2.488,2.488 h 9.348 c 1.672,14.269 7.492,27.816 16.902,38.805 0.895,1.039 2.469,1.16 3.516,0.269 1.043,-0.894 1.164,-2.465 0.269,-3.512 -10.484,-12.234 -16.257,-27.851 -16.257,-43.984 0,-33.738 24.734,-62.059 57.847,-66.852 1.36,4.129 5.203,7.141 9.778,7.141 4.578,0 8.421,-3.012 9.781,-7.141 33.121,4.793 57.844,33.102 57.844,66.852 0,16.516 -6.016,32.418 -16.938,44.773 -0.914,1.028 -0.816,2.602 0.215,3.512 1.031,0.918 2.598,0.82 3.516,-0.211 9.847,-11.152 15.925,-24.996 17.632,-39.652 h 9.188 c 1.375,0 2.488,-1.113 2.488,-2.488 0,-1.375 -1.113,-2.489 -2.488,-2.489 h -8.793 c 0.051,-1.148 0.156,-2.289 0.156,-3.445 0,-5.645 -0.719,-11.129 -1.937,-16.422 h 32.906 c 1.375,0 2.488,-1.113 2.488,-2.488 0,-1.379 -1.113,-2.492 -2.488,-2.492 h -34.215 c -2.203,-7.149 -5.484,-13.821 -9.652,-19.86 h 63.875 c 1.379,0 2.492,-1.113 2.492,-2.488 0,-1.379 -1.113,-2.488 -2.492,-2.488 H 661.293 C 650.684,376.303 635.73,367.158 618.449,364.026 l 51.313,-100.762 v -94.512 c 4.957,-0.762 8.769,-5.015 8.769,-10.176 0,-5.703 -4.636,-10.339 -10.34,-10.339 z m -19.086,275.32 c -9.683,0 -17.562,7.871 -17.562,17.555 0,9.679 7.879,17.562 17.562,17.562 9.676,0 17.547,-7.879 17.547,-17.562 0,-9.684 -7.871,-17.555 -17.547,-17.555 z m 0.75,-5.035 c -8.492,-16.969 -25.543,-27.508 -44.503,-27.508 -19.125,0 -36.243,10.676 -44.676,27.863 -0.61,1.235 -0.098,2.727 1.136,3.328 1.235,0.606 2.727,0.098 3.333,-1.136 7.589,-15.469 22.996,-25.079 40.207,-25.079 17.062,0 32.41,9.489 40.046,24.762 0.622,1.235 2.137,1.723 3.34,1.11 1.231,-0.614 1.735,-2.11 1.117,-3.34 z m -1.32,41.554 c -0.363,-0.187 -0.754,-0.273 -1.14,-0.273 -0.903,0 -1.77,0.492 -2.215,1.348 -7.711,15.007 -22.969,24.332 -39.825,24.332 -16.793,0 -32.023,-9.266 -39.753,-24.184 -0.637,-1.219 -2.149,-1.687 -3.36,-1.066 -1.222,0.636 -1.691,2.136 -1.062,3.359 8.59,16.574 25.523,26.871 44.175,26.871 18.731,0 35.684,-10.359 44.258,-27.035 0.625,-1.223 0.149,-2.723 -1.078,-3.352 z m -86.937,-1.402 c 9.683,0 17.562,-7.879 17.562,-17.562 0,-9.684 -7.879,-17.555 -17.562,-17.555 -9.68,0 -17.551,7.871 -17.551,17.555 0,9.679 7.871,17.562 17.551,17.562 z m 185.375,-80.059 c -0.457,-0.671 -1.223,-1.078 -2.039,-1.078 l -79.098,-0.367 67.426,-112.625 c 0.23,-0.391 0.347,-0.828 0.347,-1.281 v -94.731 c 4.43,-1.168 7.723,-5.168 7.723,-9.957 0,-5.699 -4.633,-10.339 -10.336,-10.339 -5.699,0 -10.336,4.64 -10.336,10.339 0,4.883 3.414,8.961 7.977,10.039 v 93.961 L 659.32,378.362 c -0.457,0.765 -0.476,1.718 -0.031,2.5 0.438,0.781 1.258,1.261 2.156,1.265 l 79.758,0.371 c -2.82,6.211 -7.047,12.672 -11.875,19.067 h -52.164 c -1.379,0 -2.488,1.113 -2.488,2.488 0,1.375 1.109,2.488 2.488,2.488 h 48.305 c -5.649,6.985 -11.867,13.793 -17.856,20.004 -0.222,-0.07 -0.453,-0.144 -0.699,-0.144 h -24.805 c -1.379,0 -2.488,1.117 -2.488,2.488 0,1.375 1.109,2.488 2.488,2.488 h 20.778 c -2.457,2.496 -4.856,4.906 -7.059,7.113 -5.992,5.985 -9.914,9.946 -12.223,12.75 h -3.511 c -1.375,0 -2.489,1.114 -2.489,2.489 0,1.375 1.114,2.492 2.489,2.492 h 0.715 c -8.375,30.379 -34.477,52.875 -65.661,56.789 -1.332,-4.164 -5.195,-7.207 -9.796,-7.207 -4.602,0 -8.465,3.043 -9.797,7.207 -31.172,-3.91 -57.297,-26.43 -65.66,-56.789 h 0.55 c 1.375,0 2.489,-1.113 2.489,-2.492 0,-1.375 -1.114,-2.489 -2.489,-2.489 h -3.383 c -2.312,-2.812 -6.222,-6.777 -12.171,-12.75 -2.2,-2.211 -4.579,-4.617 -7.02,-7.113 h 20.559 c 1.375,0 2.488,-1.109 2.488,-2.488 0,-1.371 -1.113,-2.488 -2.488,-2.488 h -24.805 c -0.18,0 -0.328,0.066 -0.5,0.101 C 497.172,420.295 491,413.51 485.363,406.541 h 48.008 c 1.375,0 2.488,-1.113 2.488,-2.488 0,-1.375 -1.113,-2.488 -2.488,-2.488 h -51.883 c -5.011,-6.641 -9.394,-13.336 -12.269,-19.77 h 78.972 c 0.887,0 1.719,-0.476 2.157,-1.254 0.445,-0.773 0.441,-1.726 -0.012,-2.496 L 482.535,262.584 v -94.097 c 4.36,-1.211 7.586,-5.176 7.586,-9.911 0,-5.703 -4.637,-10.339 -10.336,-10.339 -5.703,0 -10.34,4.636 -10.34,10.339 0,4.93 3.485,9.059 8.114,10.075 v 94.609 c 0,0.445 0.117,0.879 0.343,1.266 l 65.938,112.293 h -78.332 c -0.817,0 -1.582,0.398 -2.043,1.066 -0.473,0.668 -0.574,1.527 -0.289,2.289 7.945,21.383 32.164,45.719 48.187,61.824 6.332,6.364 12.879,12.949 13.469,14.692 8.648,32.804 36.793,57.195 70.371,61.297 0.871,4.812 5.082,8.484 10.145,8.484 5.074,0 9.277,-3.672 10.152,-8.488 33.617,-4.106 61.75,-28.5 70.391,-61.387 0.586,-1.723 7.129,-8.258 13.457,-14.586 15.879,-15.879 39.882,-39.879 47.902,-61.106 0.293,-0.761 0.188,-1.617 -0.277,-2.289 z m 19.976,-230.378 c -5.844,0 -10.59,4.742 -10.59,10.585 0,5.848 4.746,10.59 10.59,10.59 5.844,0 10.586,-4.742 10.586,-10.59 0,-5.843 -4.742,-10.585 -10.586,-10.585 z"
         style="fill:#000000;fill-opacity:1;fill-rule:nonzero;stroke:none"
         id="path80" /><path
         d="m 610.672,516.029 c 0.004,0.047 0.027,0.083 0.031,0.125 -0.004,2.946 -2.402,5.34 -5.351,5.34 -2.954,0 -5.356,-2.402 -5.356,-5.355 0,-2.953 2.402,-5.36 5.356,-5.36 2.898,0 5.23,2.317 5.324,5.192 0,0.019 -0.004,0.035 -0.004,0.058 z"
         style="fill:#000000;fill-opacity:1;fill-rule:nonzero;stroke:none"
         id="path82" /><path
         d="m 480.051,163.701 c -0.246,0 -0.481,0.075 -0.703,0.145 -2.746,-0.238 -4.922,-2.473 -4.922,-5.27 0,-2.957 2.402,-5.359 5.359,-5.359 2.957,0 5.363,2.402 5.363,5.359 0,2.703 -2.043,4.852 -4.656,5.211 -0.152,-0.023 -0.285,-0.086 -0.441,-0.086 z"
         style="fill:#000000;fill-opacity:1;fill-rule:nonzero;stroke:none"
         id="path84" /><path
         d="m 731.125,163.701 c -0.223,0 -0.43,0.067 -0.637,0.125 -2.707,-0.269 -4.847,-2.476 -4.847,-5.25 0,-2.957 2.402,-5.359 5.359,-5.359 2.957,0 5.359,2.402 5.359,5.359 0,2.727 -2.078,4.895 -4.722,5.227 -0.168,-0.039 -0.332,-0.102 -0.512,-0.102 z"
         style="fill:#000000;fill-opacity:1;fill-rule:nonzero;stroke:none"
         id="path86" /><path
         d="m 561.598,428.533 c 6.937,0 12.582,5.645 12.582,12.579 0,6.937 -5.645,12.582 -12.582,12.582 -6.938,0 -12.575,-5.645 -12.575,-12.582 0,-6.934 5.637,-12.579 12.575,-12.579 z"
         style="fill:#000000;fill-opacity:1;fill-rule:nonzero;stroke:none"
         id="path88" /><path
         d="m 649.105,453.694 c -6.941,0 -12.585,-5.645 -12.585,-12.582 0,-6.934 5.644,-12.579 12.585,-12.579 6.934,0 12.571,5.645 12.571,12.579 0,6.937 -5.641,12.582 -12.571,12.582 z"
         style="fill:#000000;fill-opacity:1;fill-rule:nonzero;stroke:none"
         id="path90" /></g></g></svg>
